# xmcd
#
# Track frame offsets:
#	150
#	11202
#	23165
#	35704
#	47604
#	58386
#	71209
#	85593
#	99322
#	111691
#	125094
#	139599
#
# Disc length: 2048 seconds
#
# Revision: 0
# Processed by: cddbd v1.5.1PL2 Copyright (c) Steve Scherf et al.
# Submitted via: EasyCDDAExtractor 10.0.2.1
#
DISCID=b007fe0c
DTITLE=KK - Blús
DYEAR=2006
DGENRE=Blues
TTITLE0=Hún er mér allt
TTITLE1=Þú varst
TTITLE2=Það hefur rignt
TTITLE3=Hún er einskis manns
TTITLE4=Ég er á förum
TTITLE5=Hvað varðar þig um það
TTITLE6=Get ég ekkert gert
TTITLE7=Hvað er að
TTITLE8=Koma mér burt
TTITLE9=Þrettán skref
TTITLE10=Þú hefur tak á mér
TTITLE11=Svo köld, þessi kona
EXTD=
EXTT0=
EXTT1=
EXTT2=
EXTT3=
EXTT4=
EXTT5=
EXTT6=
EXTT7=
EXTT8=
EXTT9=
EXTT10=
EXTT11=
PLAYORDER=
